<?xml version="1.0" standalone="no"?>
<!DOCTYPE svg PUBLIC "-//W3C//DTD SVG 20010904//EN"
 "http://www.w3.org/TR/2001/REC-SVG-20010904/DTD/svg10.dtd">
<svg version="1.0" xmlns="http://www.w3.org/2000/svg"
 width="100%" height="100%" viewBox="0 0 1200.000000 1200.000000"
 preserveAspectRatio="xMidYMid meet">

<g transform="translate(0.000000,1200.000000) scale(0.100000,-0.100000)"
fill="#ffffff" stroke="none">
<path d="M5580 11329 c-757 -57 -1521 -286 -2140 -643 -407 -235 -729 -483
-1066 -820 -269 -269 -472 -517 -667 -817 -632 -970 -909 -2163 -771 -3324 92
-770 361 -1518 771 -2145 199 -303 399 -548 667 -816 268 -268 513 -468 816
-667 971 -636 2182 -913 3350 -767 984 123 1840 494 2615 1134 151 125 492
465 617 616 501 605 829 1243 1014 1969 217 851 217 1681 0 2532 -185 726
-513 1364 -1014 1969 -125 151 -466 491 -617 616 -615 507 -1263 838 -1999
1019 -530 130 -1080 181 -1576 144z m840 -174 c734 -80 1389 -298 2010 -671
351 -211 610 -413 913 -713 400 -395 692 -796 938 -1291 270 -543 425 -1090
491 -1730 19 -191 16 -717 -6 -920 -18 -167 -68 -488 -83 -528 -6 -17 -19 30
-47 175 -21 109 -58 302 -82 428 -25 127 -65 336 -90 465 -127 654 -127 655
-142 646 -12 -7 -552 -39 -558 -33 -6 5 -95 214 -340 797 -80 190 -150 349
-155 354 -10 11 6 16 -323 -98 -137 -47 -250 -86 -251 -86 -3 0 -324 508 -588
928 -64 103 -123 188 -130 188 -6 1 -82 -71 -167 -160 -207 -216 -483 -496
-488 -496 -2 0 -174 166 -381 368 -207 202 -504 491 -660 642 l-283 275 -360
718 c-197 396 -358 721 -356 723 4 4 270 31 363 38 132 8 636 -4 775 -19z
m-1290 -50 c0 -5 -114 -184 -265 -415 -48 -74 -219 -324 -380 -555 -197 -283
-323 -475 -387 -590 -52 -93 -142 -255 -201 -360 -58 -104 -122 -233 -142
-285 -20 -52 -83 -212 -140 -355 -56 -143 -122 -309 -145 -370 -23 -60 -46
-114 -50 -119 -5 -4 -86 -1 -182 8 -201 20 -579 55 -623 58 -33 3 -27 21 -69
-207 -8 -44 -26 -143 -41 -220 -14 -77 -32 -174 -40 -215 -7 -41 -25 -138 -40
-215 -14 -77 -44 -234 -65 -350 -53 -283 -51 -277 -64 -272 -6 3 -192 82 -414
177 -221 95 -404 171 -406 169 -1 -2 -26 -184 -56 -404 -56 -429 -65 -494
-105 -795 -14 -107 -35 -260 -45 -340 -35 -263 -29 -241 -59 -238 -30 4 -35
19 -80 283 -52 298 -65 467 -65 815 -1 320 7 441 45 705 122 851 476 1666
1015 2339 212 264 498 550 766 764 511 409 1122 719 1757 892 230 63 481 112
481 95z m229 -652 c52 -126 116 -282 143 -348 27 -66 53 -129 58 -140 5 -11
31 -74 58 -140 146 -357 185 -452 196 -471 6 -12 252 -216 546 -454 294 -238
547 -443 562 -457 20 -19 25 -32 22 -57 -2 -17 -11 -114 -19 -216 l-16 -185
256 -668 c140 -368 255 -673 255 -679 0 -7 -8 -21 -19 -32 -10 -12 -150 -199
-311 -416 -160 -217 -296 -395 -301 -395 -8 0 -209 235 -360 421 -58 70 -80
118 -244 519 -30 72 -74 180 -100 240 -71 171 -353 1236 -411 1555 -41 226
-59 326 -116 625 -20 109 -22 113 -284 637 l-263 527 122 180 c67 99 124 180
127 181 3 0 48 -102 99 -227z m-396 -951 l297 -298 31 -114 c16 -63 48 -184
70 -269 21 -84 87 -377 144 -652 58 -274 108 -507 111 -516 3 -10 -35 25 -85
77 -57 59 -162 193 -277 352 l-185 258 -182 157 c-100 87 -199 174 -220 194
l-39 35 -29 205 c-23 161 -35 214 -55 254 -14 28 -54 104 -90 171 l-64 121
132 161 c73 89 135 162 138 162 3 0 139 -134 303 -298z m-594 -805 l181 -317
-10 -138 c-5 -75 -12 -166 -15 -202 -3 -36 -12 -170 -21 -299 l-15 -233 -90
-179 -90 -180 21 -280 c13 -184 20 -377 20 -563 l0 -284 -265 -201 c-145 -111
-268 -207 -272 -214 -4 -6 -15 -45 -23 -86 l-15 -75 -164 -57 c-91 -32 -183
-71 -207 -88 -52 -36 -5 -32 -1129 -111 -148 -11 -336 -24 -417 -31 -144 -11
-147 -11 -178 11 -20 14 -29 28 -26 38 3 10 12 87 21 172 8 85 19 191 25 235
5 44 24 211 41 370 17 160 32 291 33 292 2 2 191 -36 422 -83 230 -46 488 -99
571 -116 84 -16 159 -28 166 -25 8 3 18 35 25 79 6 40 23 141 37 223 14 83 32
188 40 235 7 47 25 153 40 235 15 83 31 177 36 210 6 33 11 60 12 61 1 1 58
37 127 81 309 194 602 385 652 425 l37 29 0 277 c0 152 -6 347 -13 432 l-12
155 93 187 c51 103 93 189 93 191 0 20 73 158 79 151 5 -5 90 -152 190 -327z
m3871 -458 l235 -530 129 -109 130 -108 157 79 158 79 47 -88 c26 -48 57 -105
69 -127 13 -22 90 -166 173 -320 92 -172 189 -338 252 -430 57 -82 106 -154
110 -158 4 -4 66 36 140 88 73 53 136 93 140 88 8 -8 70 -239 209 -773 22 -85
51 -197 65 -248 l25 -94 -132 7 c-73 4 -136 11 -140 15 -9 8 -102 302 -198
629 -10 36 -22 68 -26 72 -5 4 -80 -9 -168 -31 l-160 -38 -25 27 c-14 15 -144
193 -290 394 l-265 367 -248 0 -247 0 -251 243 c-249 240 -253 244 -471 531
-128 169 -218 297 -216 307 2 10 98 129 213 265 116 136 237 280 270 320 33
40 65 73 70 73 6 0 116 -238 245 -530z m-3261 -300 c141 -84 264 -159 275
-168 37 -32 358 -527 425 -655 201 -386 351 -686 343 -686 -9 0 -72 28 -222
97 -41 19 -138 63 -215 98 -77 35 -174 79 -215 98 -41 19 -106 49 -143 66 -52
23 -107 64 -225 168 -87 75 -187 164 -224 196 l-68 59 0 439 c0 241 3 439 6
439 4 0 122 -68 263 -151z m3048 -854 c93 -36 247 -97 343 -134 96 -38 212
-83 258 -101 l84 -32 248 -298 247 -297 -13 -69 c-33 -171 -81 -394 -86 -399
-3 -3 -65 30 -139 73 -554 326 -806 477 -820 491 -13 12 -131 391 -220 707 -5
17 -25 49 -44 71 -33 39 -41 53 -30 53 2 0 80 -29 172 -65z m-3204 -366 c45
-29 98 -62 117 -75 19 -12 149 -92 288 -178 139 -86 269 -167 290 -180 210
-132 173 -117 507 -205 171 -45 324 -86 340 -92 25 -7 40 -27 83 -107 29 -53
83 -153 120 -222 37 -69 92 -170 121 -225 30 -55 58 -104 62 -110 32 -35 21
-35 -503 -33 l-513 3 -136 254 -137 253 -83 45 c-83 44 -175 93 -544 286 -104
54 -194 102 -198 106 -4 5 19 115 52 246 42 169 57 244 50 256 -22 41 -14 39
84 -22z m-29 -986 c122 -92 313 -236 426 -321 113 -85 212 -161 220 -168 12
-12 -59 -14 -449 -14 l-463 0 6 188 c13 400 18 482 29 482 6 0 110 -75 231
-167z m-2122 -1159 c119 -42 193 -165 216 -357 8 -63 7 -68 -12 -72 -156 -36
-146 -35 -150 -12 -3 12 -7 45 -10 72 -20 174 -126 261 -250 206 -56 -24 -76
-63 -76 -148 0 -89 30 -139 181 -307 159 -177 209 -239 255 -322 65 -116 77
-165 78 -309 1 -128 1 -131 -33 -199 -54 -109 -144 -152 -269 -127 -132 26
-266 130 -326 253 -31 63 -66 196 -66 250 0 38 1 38 39 38 21 0 58 3 83 6 l45
6 12 -83 c24 -162 79 -254 171 -284 88 -29 140 0 160 90 12 54 6 126 -16 188
-22 62 -104 171 -264 352 -203 228 -239 307 -227 486 10 159 93 258 238 289
55 11 167 3 221 -16z m4120 -40 c69 -23 122 -75 163 -157 36 -74 75 -228 75
-302 l0 -40 -72 -28 c-40 -15 -78 -27 -84 -27 -6 0 -14 29 -17 68 -9 87 -32
177 -59 220 -60 98 -192 95 -251 -6 -28 -48 -34 -172 -12 -247 23 -83 35 -99
220 -316 174 -204 240 -304 278 -424 19 -61 22 -92 22 -230 -1 -144 -3 -166
-24 -220 -69 -174 -176 -258 -331 -258 -55 0 -89 6 -122 21 -125 55 -211 223
-233 458 l-7 71 78 31 c44 18 84 32 89 32 6 0 18 -53 27 -117 30 -206 95 -295
204 -278 92 13 140 101 137 250 -3 148 -39 212 -264 475 -77 91 -156 188 -175
215 -98 143 -123 433 -53 620 31 82 79 139 150 174 53 27 73 31 139 31 43 0
96 -7 122 -16z m2128 -148 c0 -95 -3 -115 -16 -120 -9 -3 -51 -6 -95 -6 l-79
0 0 114 0 115 43 4 c23 2 66 4 95 5 l52 2 0 -114z m-4214 4 l44 0 0 -200 0
-200 80 0 80 0 0 -88 0 -87 -78 3 -79 4 -5 -449 c-3 -247 -2 -469 2 -492 11
-59 37 -83 99 -89 l51 -5 0 -93 0 -94 -82 0 c-136 1 -205 48 -244 168 -18 53
-19 91 -15 559 l3 502 -53 3 -54 3 -3 83 -3 82 56 0 55 0 0 193 c0 107 3 197
8 201 4 4 27 5 51 2 24 -3 63 -6 87 -6z m4942 -250 c17 -16 35 -45 40 -62 6
-19 13 -237 16 -494 l6 -461 -88 -27 c-48 -14 -90 -26 -94 -26 -5 0 -8 188 -8
418 0 257 -4 431 -10 454 -20 70 -74 73 -156 10 l-47 -37 6 -452 7 -452 -53
-15 c-89 -25 -131 -36 -133 -33 0 1 -4 260 -8 575 -5 459 -4 573 6 576 7 3 50
7 96 11 l82 6 0 -52 0 -52 48 46 c74 69 132 95 214 96 39 1 51 -4 76 -29z
m-719 -747 l1 -482 -37 -10 c-78 -21 -136 -32 -141 -26 -4 4 -20 1192 -16
1203 0 1 41 6 90 10 l89 7 6 -110 c4 -60 7 -327 8 -592z m-5485 668 c86 -38
135 -119 157 -261 12 -82 17 -375 6 -386 -7 -7 -299 28 -364 43 l-23 5 0 -168
c0 -93 5 -186 11 -208 19 -67 76 -106 135 -92 35 9 52 54 60 165 7 87 8 92 28
87 12 -2 44 -8 71 -11 94 -12 89 -5 82 -109 -10 -150 -50 -249 -119 -291 -45
-27 -152 -25 -229 4 -121 46 -186 138 -215 303 -21 120 -15 639 8 728 43 163
126 226 282 215 38 -3 88 -14 110 -24z m4985 -34 c53 -35 96 -121 111 -222 5
-38 10 -206 10 -373 0 -167 5 -369 11 -449 8 -109 8 -148 -1 -153 -16 -10
-150 -33 -156 -27 -3 2 -11 38 -17 78 l-13 74 -12 -34 c-54 -154 -199 -231
-295 -158 -20 15 -48 52 -63 84 -24 48 -29 73 -32 153 -10 229 70 370 292 518
l99 66 -6 105 c-8 159 -25 191 -101 191 -65 0 -93 -47 -103 -171 l-6 -76 -60
-7 c-122 -12 -117 -15 -117 57 0 128 49 260 117 316 57 47 105 61 209 58 81
-2 95 -5 133 -30z m-4234 -17 c98 -47 134 -136 142 -347 l6 -141 -64 4 c-116
9 -109 3 -109 93 0 167 -32 236 -109 236 -95 0 -103 -42 -105 -510 -1 -351 0
-361 21 -408 34 -74 114 -91 157 -34 18 25 21 45 25 158 l3 130 82 -7 c44 -4
85 -12 89 -18 12 -16 -1 -219 -19 -298 -17 -76 -58 -139 -106 -165 -23 -12
-54 -17 -103 -17 -175 1 -280 90 -323 276 -14 61 -17 125 -16 393 2 396 17
511 79 595 51 69 110 92 222 86 58 -3 96 -10 128 -26z m3475 -9 c47 -34 87
-97 109 -177 19 -66 24 -123 32 -349 18 -476 -15 -674 -130 -777 -37 -34 -92
-58 -134 -58 -29 0 -80 26 -114 58 l-33 31 0 -263 c0 -227 -2 -265 -15 -270
-9 -3 -51 -9 -94 -12 l-78 -7 -6 438 c-4 241 -7 649 -7 906 l0 467 86 7 c96 8
104 4 104 -51 l0 -30 49 47 c71 68 167 85 231 40z m-2224 -30 c81 -37 139
-133 166 -278 19 -97 18 -730 -1 -833 -28 -155 -74 -235 -157 -276 -49 -24
-63 -26 -134 -22 -65 4 -88 10 -127 34 -83 51 -131 146 -153 299 -13 93 -13
648 0 753 22 171 73 273 159 319 58 30 184 32 247 4z m804 -127 c0 -135 -1
-146 -17 -139 -10 3 -36 11 -59 17 -60 16 -109 -10 -151 -82 l-33 -54 0 -513
0 -514 -92 3 -93 3 -3 703 -2 702 95 0 95 0 0 -92 0 -93 36 60 c20 33 46 71
57 84 29 31 94 61 135 61 l32 0 0 -146z"/>
<path d="M3282 3910 c-37 -15 -54 -72 -59 -202 l-6 -117 24 -5 c36 -9 152 -26
172 -26 15 0 17 12 17 118 0 132 -10 179 -42 209 -28 25 -75 35 -106 23z"/>
<path d="M8284 3361 c-40 -39 -82 -92 -95 -118 -28 -57 -37 -172 -19 -228 28
-85 103 -78 162 17 l33 53 -5 173 -5 173 -71 -70z"/>
<path d="M7432 3790 l-42 -30 2 -437 3 -437 34 -23 c40 -27 106 -31 138 -8 54
38 71 231 55 627 -8 219 -11 240 -33 285 -23 46 -26 48 -69 51 -38 2 -53 -2
-88 -28z"/>
<path d="M5272 3777 c-41 -44 -45 -77 -49 -467 -6 -472 3 -530 84 -554 50 -14
85 10 105 71 15 46 18 104 20 445 3 422 0 457 -47 504 -32 32 -84 32 -113 1z"/>
</g>
</svg>
