<svg xmlns="http://www.w3.org/2000/svg" width="46" height="46" viewBox="0 0 512 512"><path fill="#74CCCF" d="M406.6,173.5c-1.6-17.1-3.8-34.1-4.3-51.3c-0.7-0.1-1.4-0.3-2-0.7c-22.1,1.6-42.8,12-64.9,14.5c-25.7,3-51.5,1.8-77.2,0.5c-52.3-2.5-104.7-1.3-157.1-1.3c-0.2,0-0.3,0-0.5,0c2.4,11.1,0.9,23.4,0.6,34.3c-0.6,21.9,0.4,43.8,1.5,65.6c1.1,20.7,2.8,41.3,3.7,62c4.3-4,8.9-7.7,13-11.9c4.9-4.9,9.3-10.3,14.5-14.9c5.4-4.9,11.1-9.1,18.2-11c6.7-1.8,13.8-0.5,20.1,1.9c12.9,4.9,24.6,13.7,34.8,22.8c4.2,3.7,9.6,9.7,15.4,10.7c4.6,0.8,9.2-3,12.5-5.7c8.2-6.9,15.1-15.4,22.8-22.8c11.3-10.9,22-22.4,32.6-33.9c10.4-11.3,21.7-21.6,33-32c6.8-6.2,13.3-18.5,23.7-18.7c7.2-0.1,13.6,4.3,19.5,8c7.5,4.7,14.9,9.7,21.9,15.1c7,5.4,13.9,11.1,19.5,18c0.1,0.1,0.2,0.3,0.3,0.4C408.1,206.5,408.2,190,406.6,173.5z M228.4,189.2c-7.7,27.9-59.4,10.1-55.2-16.4c0.4-2.7,2.3-4,4.4-4.3C187.5,143.1,236.3,160.9,228.4,189.2z"/><path fill="#FEBF10" d="M81.4 400.6L81.4 400.6 81.4 400.6zM81.4 400.6c.1 0 .2-.1.4-.1.1-.2.3-.5.8-1.2C82.2 399.8 81.9 400.3 81.4 400.6z"/><path fill="#3AB37C" d="M411.4,291.5c-0.7-15.8-1.6-31.7-2.2-47.5c-3.5,0.4-7.2-1.9-5.9-6.2c0.4-1.2,0.4-2.2-0.9-4.4c-1.7-2.9-3.8-5.4-6.2-7.8c-6.2-6.2-13.1-11.7-20.2-16.8c-6.1-4.4-12.4-8.6-18.9-12.4c-2-1.2-4.8-3.3-7.1-3.8c-4-0.8-6.8,2.4-9.3,5.2c-9,10-19.1,18.7-28.7,28.1c-11.2,11-21.6,22.8-32.5,34.1c-8.9,9.2-18.1,17.9-26.9,27.2c-6.7,7.1-14.6,15.7-24.5,18c-11,2.7-20.6-6.3-28.2-13.1c-8.8-7.8-18.7-15.5-29.6-20.1c-5.9-2.4-12.3-3.9-18.4-1.2c-5.5,2.4-10,6.7-14.1,11c-4.6,4.7-8.9,9.7-13.8,14.1c-5.2,4.7-10.6,9.2-15.3,14.5c-0.6,0.6-1.2,1.1-1.8,1.4c0.2,8.3,0.1,16.7,0.1,25c0,3.2,0,6.4,0,9.6c0,1,0,2,0.1,3c0.9,1.1,1.4,2.6,0.8,4.4c-0.2,0.6-0.4,1.3-0.7,1.9c0.2,0.2,0.6,0.9,0.5,0.8c1.6,1.5,3,2.3,5.6,3.3c6.2,2.5,13.4,3.6,20.1,4.4c31.3,3.8,63.9,1.9,95.3,0.8c32.7-1.2,65.3-4.7,97.9-6.5c16.3-0.9,32.6-0.9,48.9-1.2c4.5-0.1,9-0.3,13.5-0.7c3.1-0.3,6.1-1.9,9-2.9c4.6-1.7,9.1-3,13.8-3.2C412.2,330.7,412.2,311.1,411.4,291.5z"/><path fill="#FEBF10" d="M187,175.9c-0.3,1.9-1.2,3.1-2.5,3.7c2.1,5.3,8.7,9.2,13.7,10.7c5.9,1.8,17,3.9,19.6-3.9C223.2,170.8,189.8,157.7,187,175.9z"/><path fill="#C56528" d="M445.1,352.8c-0.1-12.7-1.2-25.4-2-38.1c-1.7-26.8-3.1-53.6-4.7-80.4c-1.6-26.8-2.9-53.4-3.5-80.2c-0.3-12.4-0.4-24.8-1.1-37.2c-0.5-9.8-1.6-19.7-4.6-29.1c-0.6-0.5-1.1-1-1.4-1.6c-29.3,0.4-58.1,8.3-87,12c-30.8,4-61.9,4.9-92.9,5c-31,0.1-62.1-0.3-93.1-0.8c-14.7-0.2-29.4-0.4-44.1-0.5c-14.2-0.1-28.5,0.2-42.2,4c-0.1,0-0.2,0.1-0.3,0.1c0.1,1.1-0.1,2.1-0.7,3c0,0,0,0,0,0c0,0.1,0,0.1,0,0.2c0,0.1,0,0.2,0,0.3c0,0.6,0,1.3,0,1.9c0,3.6,0,7.1,0.1,10.7c0.9,29.6,3.8,59.1,4.6,88.7c0.7,29.8,0,59.7,1,89.5c0.5,15.9,1.3,31.8,2.7,47.6c1.3,14,2.7,28,2.5,42c7.3-2.9,18.2-0.9,24.5-0.3c8.3,0.8,16.6,1.9,24.9,3c12,1.7,24.2,2.2,36.3,3.2c32.7,2.9,65.1,5.5,97.9,5.2c32.6-0.2,65.3-2.2,97.5-7.3c15.3-2.4,30.7-4.2,46-6.1c5.5-0.7,11.1-1.2,16.6-2.1c4.1-0.6,9.1-1,12.6-3.5c0.1-0.1,0.3-0.2,0.4-0.3c-0.1-2.5,1.9-4.6,4.4-5.3c1.2-2.8,2.5-5.4,3.7-8.2C445.3,363.4,445.2,358.3,445.1,352.8z M423.1,351.4c0,2.6-1.4,4.3-3.3,5.1c-0.6,2.6-2.9,5-6.3,4.7c-8.1-0.7-15.5,5.6-23.5,6.3c-10.3,0.9-20.6,0.7-31,0.8c-21,0.3-41.9,1.7-62.8,3.3c-42.6,3.3-85.3,5.8-128,5.4c-16.3-0.2-33.2-0.4-49.2-4.1c-10.3-2.4-24.3-7.1-23-20.1c0,0,0-0.1,0-0.1c-0.5-3.1-0.1-6.7-0.1-9.4c0-10.5,0.1-21-0.1-31.5c-0.6-22.6-2.5-45.2-3.8-67.8c-1.3-22.9-2.2-45.7-2.1-68.6c0-8.1,0.7-16.3,0.6-24.4c-0.1-6.9-0.1-14.9-3.7-20.9c-3.6-6.1,5.5-12.3,9.1-6.2c0.3,0.5,0.6,1.1,0.9,1.6c0.8-0.6,1.8-1,3.1-1c52.3,0,104.8-1.2,157.1,1.3c25.7,1.2,51.6,2.6,77.2-0.5c23.7-2.9,45.7-14.4,69.8-14.8c0.9,0,1.6,0.1,2.3,0.4c3.1-0.8,6.6,0.7,6.6,4.7c0.1,19.8,2.9,39.4,4.6,59.2c1.7,19.5,1.3,39,2,58.6c0.7,19.8,1.9,39.6,2.7,59.5C423.2,312.2,423.1,331.8,423.1,351.4z"/><path d="M81.4,400.6C81.4,400.6,81.4,400.6,81.4,400.6c0.2,0,0.1,0.2,0.4-0.1C81.7,400.6,81.5,400.6,81.4,400.6z"/><path d="M454.2,315.8c-1.8-27.4-3.2-54.9-4.8-82.3c-1.6-27.4-2.9-54.7-3.6-82.1c-0.3-12.3-0.5-24.6-1.1-36.9c-0.6-10.4-2-21-5.4-30.8c0.2-0.6,0.5-1.1,0.6-1.8c1.1-3.7-2.6-6.4-5.8-6.5c-31.1-0.9-61.8,7.4-92.4,11.7c-31.4,4.4-63.2,5.1-94.8,5.3c-31.7,0.2-63.4-0.3-95.1-0.8c-14.6-0.2-29.2-0.4-43.8-0.5c-14.6-0.1-29.1,0.7-43.3,4.6c-2.7,0.7-3.8,2.8-3.6,4.9c-0.1,0-0.2,0-0.4,0.1c-4.5,1-4.3,7.2-4.4,10.7c-0.2,5.9,0.1,11.7,0.3,17.6c0.6,17,1.7,34,2.7,50.9c2.6,44.9,1.3,89.9,3.2,134.9c1,24.7,4.9,49.5,4.7,74.2c-0.1,0.4-0.1,0.8-0.1,1.3v5c0,3.8,3.1,5.3,6,4.8c1.9,2.1,5.8,2.8,8.3,0.6c0,0,0,0,0,0c0,0,0,0,0,0c0.4-0.4,0.8-0.8,1.1-1.3c-0.4,0.7-0.6,1.1-0.8,1.2c0.2-0.1,0.4-0.1,0.3-0.1c1.3-0.3,2.7-0.3,4.1-0.4c4.1-0.2,8.2,0,12.2,0.3c8.6,0.7,17.1,1.8,25.6,3c11.2,1.6,22.6,2.1,33.9,3.1c16.3,1.4,32.5,2.9,48.8,4.2c32.1,2.5,64.8,2.1,97,0.2c31.9-1.9,63.3-7.1,95-11.1c7.6-1,15.2-1.8,22.8-2.8c6.4-0.8,13.8-1.7,19.2-5.5c0.9-0.6,1.5-1.4,1.8-2.2c2.5,0,4.8-1.6,5.5-4.4c1.1-4.5,3.5-8.5,5.4-12.7c2.4-5.4,2.7-10.7,2.7-16.5C456.1,342.3,455.1,329.1,454.2,315.8z M443,368.5c-1.2,2.8-2.6,5.5-3.7,8.2c-2.4,0.7-4.5,2.8-4.4,5.3c-0.1,0.1-0.3,0.2-0.4,0.3c-3.5,2.5-8.5,2.9-12.6,3.5c-5.5,0.8-11.1,1.4-16.6,2.1c-15.4,1.9-30.8,3.7-46,6.1c-32.2,5.1-64.9,7-97.5,7.3c-32.8,0.2-65.3-2.4-97.9-5.2c-12.1-1.1-24.3-1.5-36.3-3.2c-8.3-1.2-16.6-2.3-24.9-3c-6.2-0.6-17.2-2.5-24.5,0.3c0.2-14-1.2-28-2.5-42c-1.4-15.8-2.2-31.7-2.7-47.6c-1-29.8-0.2-59.7-1-89.5c-0.7-29.6-3.7-59.1-4.6-88.7c-0.1-3.6-0.2-7.1-0.1-10.7c0-0.6,0-1.3,0-1.9c0-0.1,0-0.2,0-0.3c0,0,0-0.1,0-0.2c0,0,0,0,0,0c0.6-0.9,0.8-1.9,0.7-3c0.1,0,0.2,0,0.3-0.1c13.7-3.8,28.1-4.1,42.2-4c14.7,0.1,29.4,0.3,44.1,0.5c31,0.5,62.1,0.9,93.1,0.8c31-0.1,62.1-1,92.9-5c29-3.8,57.7-11.6,87-12c0.4,0.6,0.9,1.1,1.4,1.6c3.1,9.4,4.1,19.2,4.6,29.1c0.7,12.4,0.8,24.8,1.1,37.2c0.6,26.8,2,53.4,3.5,80.2c1.6,26.8,3,53.6,4.7,80.4c0.8,12.7,1.9,25.3,2,38.1C445.2,358.3,445.3,363.4,443,368.5z"/><path d="M422.4,292.6c-0.8-19.8-2-39.6-2.7-59.5c-0.7-19.5-0.3-39.1-2-58.6c-1.7-19.7-4.5-39.3-4.6-59.2c0-4-3.6-5.5-6.6-4.7c-0.7-0.2-1.4-0.4-2.3-0.4c-24,0.3-46.1,11.8-69.8,14.8c-25.6,3.2-51.5,1.8-77.2,0.5c-52.3-2.5-104.7-1.3-157.1-1.3c-1.3,0-2.4,0.4-3.1,1c-0.3-0.5-0.6-1.1-0.9-1.6c-3.6-6.1-12.7,0.1-9.1,6.2c3.6,6.1,3.6,14.1,3.7,20.9c0.1,8.1-0.6,16.3-0.6,24.4c-0.1,22.9,0.8,45.8,2.1,68.6c1.3,22.6,3.2,45.2,3.8,67.8c0.3,10.5,0.1,21,0.1,31.5c0,2.7-0.4,6.3,0.1,9.4c0,0,0,0.1,0,0.1c-1.3,13,12.7,17.8,23,20.1c16,3.7,32.9,3.9,49.2,4.1c42.7,0.4,85.4-2.1,128-5.4c20.9-1.6,41.8-3,62.8-3.3c10.3-0.1,20.7,0.1,31-0.8c8-0.7,15.3-7,23.5-6.3c3.4,0.3,5.6-2.1,6.3-4.7c1.8-0.9,3.3-2.6,3.3-5.1C423.1,331.8,423.2,312.2,422.4,292.6z M102.8,235.2c-1.1-21.8-2.2-43.8-1.5-65.6c0.3-10.9,1.8-23.2-0.6-34.3c0.2,0,0.3,0,0.5,0c52.3,0,104.8-1.2,157.1,1.3c25.7,1.2,51.5,2.4,77.2-0.5c22.1-2.6,42.8-12.9,64.9-14.5c0.6,0.3,1.3,0.6,2,0.7c0.5,17.2,2.7,34.2,4.3,51.3c1.6,16.5,1.5,33,1.9,49.5c-0.1-0.1-0.2-0.3-0.3-0.4c-5.6-6.9-12.5-12.6-19.5-18c-7-5.4-14.4-10.4-21.9-15.1c-5.9-3.7-12.3-8.2-19.5-8c-10.4,0.2-17,12.5-23.7,18.7c-11.3,10.4-22.6,20.7-33,32c-10.6,11.5-21.3,23-32.6,33.9c-7.7,7.4-14.6,15.9-22.8,22.8c-3.3,2.7-7.9,6.6-12.5,5.7c-5.8-1-11.2-7-15.4-10.7c-10.2-9.1-21.9-17.9-34.8-22.8c-6.3-2.4-13.5-3.7-20.1-1.9c-7.1,1.9-12.8,6.1-18.2,11c-5.2,4.6-9.6,10-14.5,14.9c-4.1,4.2-8.7,7.9-13,11.9C105.6,276.5,103.8,255.9,102.8,235.2z M412.2,350.4c-4.8,0.2-9.2,1.5-13.8,3.2c-2.9,1.1-5.9,2.6-9,2.9c-4.5,0.5-9,0.6-13.5,0.7c-16.3,0.4-32.6,0.3-48.9,1.2c-32.7,1.8-65.2,5.3-97.9,6.5c-31.5,1.1-64,2.9-95.3-0.8c-6.7-0.8-13.9-1.9-20.1-4.4c-2.6-1-4-1.8-5.6-3.3c0.1,0.1-0.3-0.5-0.5-0.8c0.3-0.6,0.5-1.2,0.7-1.9c0.6-1.9,0.1-3.4-0.8-4.4c0-1-0.1-2-0.1-3c-0.1-3.2,0-6.4,0-9.6c0-8.3,0-16.7-0.1-25c0.6-0.3,1.2-0.8,1.8-1.4c4.7-5.3,10.1-9.8,15.3-14.5c4.9-4.4,9.2-9.4,13.8-14.1c4.1-4.3,8.6-8.6,14.1-11c6.1-2.7,12.5-1.2,18.4,1.2c10.9,4.6,20.8,12.3,29.6,20.1c7.6,6.8,17.1,15.7,28.2,13.1c9.9-2.4,17.8-10.9,24.5-18c8.7-9.3,18-18,26.9-27.2c10.9-11.3,21.3-23.1,32.5-34.1c9.6-9.4,19.7-18,28.7-28.1c2.4-2.7,5.3-6,9.3-5.2c2.3,0.5,5.1,2.6,7.1,3.8c6.5,3.8,12.8,8,18.9,12.4c7.1,5.1,14,10.6,20.2,16.8c2.3,2.4,4.4,4.9,6.2,7.8c1.3,2.2,1.3,3.2,0.9,4.4c-1.3,4.2,2.4,6.6,5.9,6.2c0.7,15.8,1.5,31.7,2.2,47.5C412.2,311.1,412.2,330.7,412.2,350.4z"/><path d="M177.6,168.5c-2.1,0.2-3.9,1.6-4.4,4.3c-4.3,26.5,47.4,44.3,55.2,16.4C236.3,160.9,187.5,143.1,177.6,168.5z M217.8,186.4c-2.6,7.7-13.8,5.7-19.6,3.9c-4.9-1.5-11.6-5.4-13.7-10.7c1.2-0.7,2.2-1.9,2.5-3.7C189.8,157.7,223.2,170.8,217.8,186.4z"/></svg>